<svg xmlns="http://www.w3.org/2000/svg" width="1149" height="244" viewBox="0 0 1149 244" role="img" aria-label="WELTMEISTER">
  <rect width="1149" height="244" fill="#0A1A12"/>
  <rect x="0" y="0" width="1149" height="6" fill="#C8A24B"/>
  <rect x="0" y="238" width="1149" height="6" fill="#C8A24B"/>
  <rect x="56" y="106" width="82" height="82" fill="#C8A24B"/>
  <g fill="#F6F4EF" transform="translate(177.8,188.0) scale(0.07500,-0.07500)">
    <path transform="translate(0.0,0)" d="M216 0 27 1760H371L468 649L567 1760H895L989 649L1083 1760H1431L1239 0H817L729 847L645 0Z" />
    <path transform="translate(1644.7,0)" d="M78 0V1760H782V1420H436V1077H768V746H436V343H805V0Z" />
    <path transform="translate(2674.3,0)" d="M78 0V1760H430V300H792V0Z" />
    <path transform="translate(3675.0,0)" d="M229 0V1422H20V1760H790V1422H581V0Z" />
    <path transform="translate(4671.7,0)" d="M78 0V1760H614L762 687L909 1760H1450V0H1128V1268L926 0H610L396 1268V0Z" />
    <path transform="translate(6386.3,0)" d="M78 0V1760H782V1420H436V1077H768V746H436V343H805V0Z" />
    <path transform="translate(7416.0,0)" d="M62 0V1760H402V0Z" />
    <path transform="translate(8066.7,0)" d="M496 -16Q255 -16 148.5 104.0Q42 224 42 486V658H390V438Q390 377 408.5 342.5Q427 308 473 308Q521 308 539.5 336.0Q558 364 558 428Q558 509 542.0 563.5Q526 618 486.5 667.5Q447 717 377 783L219 933Q42 1100 42 1315Q42 1540 146.5 1658.0Q251 1776 449 1776Q691 1776 792.5 1647.0Q894 1518 894 1255H536V1376Q536 1412 515.5 1432.0Q495 1452 460 1452Q418 1452 398.5 1428.5Q379 1405 379 1368Q379 1331 399.0 1288.0Q419 1245 478 1189L681 994Q742 936 793.0 871.5Q844 807 875.0 721.5Q906 636 906 513Q906 265 814.5 124.5Q723 -16 496 -16Z" />
    <path transform="translate(9198.3,0)" d="M229 0V1422H20V1760H790V1422H581V0Z" />
    <path transform="translate(10195.0,0)" d="M78 0V1760H782V1420H436V1077H768V746H436V343H805V0Z" />
    <path transform="translate(11224.7,0)" d="M78 0V1760H618Q753 1760 822.0 1698.5Q891 1637 914.5 1526.5Q938 1416 938 1267Q938 1123 901.5 1037.0Q865 951 764 918Q847 901 880.5 835.5Q914 770 914 666V0H567V689Q567 766 535.5 784.5Q504 803 434 803V0ZM436 1108H521Q594 1108 594 1267Q594 1370 578.0 1402.0Q562 1434 518 1434H436Z" />
  </g>
</svg>
